<svg width="128" height="128" viewBox="0 0 128 128" fill="none" xmlns="http://www.w3.org/2000/svg">
<path opacity="0.4" d="M36.0534 117.333H91.9467C106.667 117.333 112.533 108.32 113.227 97.3333L116 53.28C116.747 41.76 107.573 32 96.0001 32C92.7467 32 89.7601 30.1333 88.2667 27.2533L84.4267 19.52C81.9734 14.6666 75.5734 10.6666 70.1334 10.6666H57.9201C52.4267 10.6666 46.0267 14.6666 43.5734 19.52L39.7334 27.2533C38.2401 30.1333 35.2534 32 32.0001 32C20.4267 32 11.2534 41.76 12.0001 53.28L14.7734 97.3333C15.4134 108.32 21.3334 117.333 36.0534 117.333Z" fill="white"/>
<path d="M72 46.6666H56C53.8133 46.6666 52 44.8533 52 42.6666C52 40.48 53.8133 38.6666 56 38.6666H72C74.1867 38.6666 76 40.48 76 42.6666C76 44.8533 74.1867 46.6666 72 46.6666Z" fill="white"/>
<path d="M63.9998 96.6933C73.9557 96.6933 82.0265 88.6225 82.0265 78.6667C82.0265 68.7108 73.9557 60.64 63.9998 60.64C54.044 60.64 45.9731 68.7108 45.9731 78.6667C45.9731 88.6225 54.044 96.6933 63.9998 96.6933Z" fill="white"/>
</svg>
