<svg width="32" height="32" viewBox="0 0 32 32" fill="none" xmlns="http://www.w3.org/2000/svg">
<g clip-path="url(#clip0_37_2787)">
<path d="M15.982 31.7883C24.7116 31.7883 31.7883 24.7116 31.7883 15.982C31.7883 7.25248 24.7116 0.175781 15.982 0.175781C7.25248 0.175781 0.175781 7.25248 0.175781 15.982C0.175781 24.7116 7.25248 31.7883 15.982 31.7883Z" fill="white" fill-opacity="0.7"/>
<path d="M17.6136 26.5189V16.9063H20.8402L21.3231 13.1602H17.6136V10.7685C17.6136 9.68388 17.9146 8.94485 19.4699 8.94485L21.4538 8.94414V5.59357C21.1106 5.54791 19.9332 5.44604 18.563 5.44604C15.7028 5.44604 13.7449 7.19176 13.7449 10.398V13.1605H10.5103V16.9066H13.7449V26.5193L17.6136 26.5189Z" fill="#222222"/>
</g>
<defs>
<clipPath id="clip0_37_2787">
<rect width="32" height="32" fill="white"/>
</clipPath>
</defs>
</svg>
