<svg width="90" height="37" viewBox="0 0 90 37" fill="none" xmlns="http://www.w3.org/2000/svg">
<path d="M3.35498 15.553H7.63568C8.94137 15.553 9.98262 15.9465 10.7594 16.7419C11.5362 17.5372 11.9164 18.5921 11.9164 19.9149V22.0582C11.9164 23.3809 11.528 24.4442 10.7594 25.2312C9.98262 26.0265 8.94137 26.42 7.63568 26.42H6.09033V33.8377H3.35498V15.553ZM7.50345 23.8163C8.03234 23.8163 8.44554 23.6656 8.74304 23.3726C9.03227 23.0796 9.18102 22.6609 9.18102 22.1168V19.873C9.18102 19.3372 9.03227 18.9186 8.74304 18.6172C8.4538 18.3242 8.04061 18.1735 7.50345 18.1735H6.09033V23.8163H7.50345Z" fill="#222222"/>
<path d="M14.2139 15.553H16.9492V31.234H21.8249V33.8461H14.2139V15.553Z" fill="#222222"/>
<path d="M39.6502 29.8023H36.7083L36.1133 33.8544H33.3779L36.3695 15.5614H40.0304L43.0219 33.8544H40.237L39.6502 29.8023ZM39.2866 27.1316L38.1792 19.4712L37.0719 27.1316H39.2866Z" fill="#222222"/>
<path d="M56.7481 32.9251C55.9548 32.1298 55.5581 31.1 55.5581 29.8275V15.553H58.2935V29.8191C58.2935 30.3382 58.4339 30.7484 58.7149 31.0498C58.9959 31.3428 59.3678 31.4935 59.814 31.4935C60.2603 31.4935 60.6239 31.3428 60.9131 31.0498C61.1941 30.7568 61.3346 30.3465 61.3346 29.8191V15.553H64.0203V29.8191C64.0203 31.0916 63.6319 32.1214 62.8634 32.9168C62.0866 33.7121 61.0784 34.1056 59.8223 34.1056C58.5662 34.114 57.5414 33.7121 56.7481 32.9251Z" fill="#222222"/>
<path d="M73.0527 33.8461L71.0693 26.2944H69.6479V33.8461H66.9126V15.553H71.1933C72.499 15.553 73.5402 15.9465 74.317 16.7419C75.0938 17.5372 75.474 18.5921 75.474 19.9149V21.9242C75.474 22.7614 75.3087 23.4982 74.9864 24.1428C74.6559 24.7875 74.1931 25.2898 73.5898 25.6582L75.8872 33.8377H73.0527V33.8461ZM69.6479 23.6823H71.0693C71.5982 23.6823 72.0114 23.5316 72.3089 23.2386C72.5982 22.9456 72.7469 22.527 72.7469 21.9828V19.8647C72.7469 19.3289 72.5982 18.9102 72.3089 18.6089C72.0197 18.3158 71.6065 18.1651 71.0693 18.1651H69.6479V23.6823Z" fill="#222222"/>
<path d="M78.1348 15.553H85.9028V18.1651H80.8701V23.2637H84.8698V25.8758H80.8701V31.234H85.9028V33.8461H78.1348V15.553Z" fill="#222222"/>
<path d="M32.1298 18.4581C30.3778 17.9977 29.4771 16.9344 29.4771 15.26V15.0088C29.5762 13.3344 29.9811 11.7605 30.6257 10.2953C31.0224 9.53349 31.5265 9.18186 32.1793 9.18186C32.5264 9.18186 32.9314 9.28233 33.3776 9.53349C33.9313 9.83488 34.2288 10.2451 34.2288 10.7474C34.2288 10.9484 34.1792 11.2079 34.08 11.5093C33.9313 11.9112 33.7825 12.3214 33.6255 12.7233C33.2784 13.4349 33.0223 14.1465 32.8735 14.9L32.7248 15.8209C32.7248 16.1726 32.8735 16.3819 33.2289 16.3819L34.1296 16.1809C36.2782 15.5698 38.3359 14.7577 40.2862 13.7949C41.3357 13.3344 42.4348 12.8321 43.5422 12.3716L46.7486 10.9484C47.0461 10.7977 47.3518 10.7474 47.6493 10.7474C48.203 10.7474 48.6493 10.9484 49.0046 11.3586C49.203 11.5595 49.3021 11.7605 49.3021 11.9698C49.3021 12.2209 49.1534 12.4302 48.8476 12.5809L45.3437 14.3056C42.1869 16.0805 38.84 17.4535 35.3361 18.4163C34.7825 18.567 34.1875 18.6172 33.6338 18.6674H33.5842C33.0801 18.6591 32.576 18.6088 32.1298 18.4581ZM33.9809 6.94651C32.9809 6.79581 32.4768 6.28512 32.4768 5.47302V5.37256C32.5264 5.22186 32.5264 5.02093 32.576 4.81163C32.6256 4.46 32.6752 4.04977 32.6752 3.64791C32.6752 3.24605 32.8735 2.98651 33.2784 2.93628L33.5759 2.88605C34.0305 2.88605 34.4767 3.03675 34.9312 3.34651C35.3857 3.69814 35.5841 4.10837 35.5841 4.56047C35.5841 4.71116 35.5345 4.91209 35.4849 5.07116C35.4353 5.27209 35.3857 5.53163 35.3361 5.78279C35.2866 5.83302 35.2866 5.88326 35.2866 5.93349C35.1378 6.59488 34.7825 6.94651 34.237 6.94651H33.9809Z" fill="#E42031"/>
<path d="M46.8891 18.3074C46.0875 18.0563 45.5338 17.5958 45.2859 16.8842L45.2363 16.4823C45.2363 15.8712 45.3851 15.0088 45.7404 13.8953C46.0379 12.7819 46.3933 11.7186 46.7404 10.6972C47.0874 9.68418 47.3932 8.97256 47.6411 8.52046C47.8395 8.2693 48.0956 8.1186 48.3931 8.06H48.5419C49.0956 8.06 49.4922 8.2107 49.8393 8.5707C50.1864 8.92232 50.3434 9.33256 50.3434 9.78465C50.3434 10.0358 50.2938 10.2451 50.2442 10.446L49.7401 12.1205C50.5913 11.3084 51.4425 10.647 52.2937 10.1446C53.0953 9.68418 53.8473 9.43302 54.5497 9.43302C55.9546 9.43302 57.0537 10.2953 57.8553 11.9698L58.5081 13.5939C58.6569 14.0544 59.0122 14.3056 59.5081 14.3056H59.8056C61.855 13.9037 63.8135 13.2423 65.7142 12.38C66.4663 12.0786 67.1687 11.7186 67.8133 11.2665C68.0612 11.1158 68.367 11.0153 68.6645 11.0153C69.2677 11.0153 69.7635 11.3167 70.1685 11.8777C70.2676 12.0284 70.3172 12.2293 70.3172 12.3884C70.3172 12.5893 70.2181 12.7902 70.0197 12.9493C69.6231 13.2507 69.2181 13.5605 68.7719 13.8116C66.6233 14.9753 64.3176 15.8879 61.9129 16.4991C61.3592 16.6498 60.8138 16.7 60.3097 16.7C58.1115 16.7 56.5083 15.486 55.4505 13.0498C55.3017 12.6981 55.2026 12.4386 55.153 12.2879C55.1034 12.1372 55.0042 12.0367 54.8555 12.0367C54.6572 12.0367 54.3514 12.2377 53.9051 12.5977C52.1036 14.0209 50.5004 15.687 49.0956 17.5707C48.641 18.1316 48.1452 18.433 47.4924 18.433L46.8891 18.3074Z" fill="#E42031"/>
<path d="M23.9404 15.553H31.7085V18.1651H26.6758V23.2637H30.6755V25.8758H26.6758V31.234H31.7085V33.8461H23.9404V15.553Z" fill="#222222"/>
<path d="M46.6331 33.5363C45.9638 33.1511 45.4431 32.6237 45.0713 31.9456C44.6994 31.2674 44.5176 30.4888 44.5176 29.6181V28.9651L47.1455 28.6805V29.3586C47.1455 30.02 47.3025 30.5474 47.6083 30.9242C47.914 31.3093 48.3438 31.5018 48.8974 31.5018C49.4263 31.5018 49.8561 31.3428 50.1783 31.033C50.4924 30.7232 50.6576 30.2963 50.6576 29.7521C50.6576 29.1577 50.4924 28.5967 50.1536 28.0525C49.8147 27.5167 49.1536 26.7632 48.1537 25.8088C46.8149 24.5195 45.8976 23.4479 45.4101 22.5939C44.9225 21.74 44.6746 20.8107 44.6746 19.7977C44.6746 18.4246 45.0465 17.3279 45.782 16.5158C46.5174 15.7037 47.5339 15.3018 48.8231 15.3018C50.1122 15.3018 51.1287 15.7121 51.8642 16.5325C52.5997 17.353 52.9715 18.4498 52.9715 19.8228V20.2916L50.3436 20.5763V20.0572C50.3436 19.3623 50.2114 18.8265 49.9552 18.4665C49.699 18.0981 49.3272 17.9139 48.8479 17.9139C48.3685 17.9139 47.9967 18.0646 47.7405 18.3577C47.4843 18.6507 47.3521 19.086 47.3521 19.6637C47.3521 20.2414 47.5256 20.7939 47.8645 21.3214C48.2115 21.8572 48.8726 22.6191 49.8478 23.607C51.1865 24.9632 52.1038 26.06 52.5914 26.8888C53.079 27.7177 53.3269 28.6302 53.3269 29.6181C53.3269 30.4888 53.1451 31.2674 52.7732 31.9456C52.4013 32.6237 51.8807 33.1595 51.2113 33.5363C50.542 33.9214 49.7734 34.1139 48.914 34.1139C48.0711 34.1139 47.3108 33.9214 46.6331 33.5363Z" fill="#222222"/>
</svg>
