<svg width="128" height="128" viewBox="0 0 128 128" fill="none" xmlns="http://www.w3.org/2000/svg">
<path opacity="0.4" d="M40.7998 111.52C40.6398 111.52 40.4265 111.627 40.2665 111.627C29.9198 106.507 21.4932 98.0267 16.3198 87.6801C16.3198 87.5201 16.4265 87.3067 16.4265 87.1467C22.9332 89.0667 29.6532 90.5067 36.3198 91.6267C37.4932 98.3467 38.8798 105.013 40.7998 111.52Z" fill="white"/>
<path opacity="0.4" d="M111.68 87.7334C106.4 98.3467 97.5999 106.933 86.8799 112.107C88.9065 105.333 90.6132 98.5067 91.7332 91.6267C98.4532 90.5067 105.067 89.0667 111.573 87.1467C111.52 87.3601 111.68 87.5734 111.68 87.7334Z" fill="white"/>
<path opacity="0.4" d="M112.107 41.12C105.387 39.0933 98.6132 37.44 91.7332 36.2666C90.6132 29.3866 88.9599 22.56 86.8799 15.8933C97.9199 21.1733 106.827 30.08 112.107 41.12Z" fill="white"/>
<path opacity="0.4" d="M40.8002 16.4799C38.8802 22.9866 37.4936 29.5999 36.3736 36.3199C29.4936 37.3866 22.6669 39.0933 15.8936 41.1199C21.0669 30.3999 29.6536 21.5999 40.2669 16.3199C40.4269 16.3199 40.6402 16.4799 40.8002 16.4799Z" fill="white"/>
<path d="M82.6134 35.1466C70.2401 33.76 57.7601 33.76 45.3867 35.1466C46.7201 27.84 48.4267 20.5333 50.8267 13.4933C50.9334 13.0666 50.8801 12.7466 50.9334 12.32C55.1467 11.3066 59.4667 10.6666 64.0001 10.6666C68.4801 10.6666 72.8534 11.3066 77.0134 12.32C77.0667 12.7466 77.0667 13.0666 77.1734 13.4933C79.5734 20.5866 81.2801 27.84 82.6134 35.1466Z" fill="white"/>
<path d="M35.1465 82.6134C27.7865 81.2801 20.5332 79.5734 13.4932 77.1734C13.0665 77.0667 12.7465 77.1201 12.3198 77.0667C11.3065 72.8534 10.6665 68.5334 10.6665 64.0001C10.6665 59.5201 11.3065 55.1467 12.3198 50.9867C12.7465 50.9334 13.0665 50.9334 13.4932 50.8267C20.5865 48.48 27.7865 46.7201 35.1465 45.3867C33.8132 57.7601 33.8132 70.2401 35.1465 82.6134Z" fill="white"/>
<path d="M117.334 64.0001C117.334 68.5334 116.694 72.8534 115.68 77.0667C115.254 77.1201 114.934 77.0667 114.507 77.1734C107.414 79.5201 100.16 81.2801 92.8535 82.6134C94.2402 70.2401 94.2402 57.7601 92.8535 45.3867C100.16 46.7201 107.467 48.4267 114.507 50.8267C114.934 50.9334 115.254 50.9867 115.68 50.9867C116.694 55.2001 117.334 59.5201 117.334 64.0001Z" fill="white"/>
<path d="M82.6134 92.8533C81.2801 100.213 79.5734 107.467 77.1734 114.507C77.0667 114.933 77.0667 115.253 77.0134 115.68C72.8534 116.693 68.4801 117.333 64.0001 117.333C59.4667 117.333 55.1467 116.693 50.9334 115.68C50.8801 115.253 50.9334 114.933 50.8267 114.507C48.48 107.413 46.7201 100.213 45.3867 92.8533C51.5734 93.5466 57.7601 94.0266 64.0001 94.0266C70.2401 94.0266 76.4801 93.5466 82.6134 92.8533Z" fill="white"/>
<path d="M84.0709 84.0711C70.7318 85.754 57.2679 85.754 43.9287 84.0711C42.2458 70.7319 42.2458 57.268 43.9287 43.9289C57.2679 42.2459 70.7318 42.2459 84.0709 43.9289C85.7539 57.268 85.7539 70.7319 84.0709 84.0711Z" fill="white"/>
</svg>
