<svg width="90" height="89" viewBox="0 0 90 89" fill="none" xmlns="http://www.w3.org/2000/svg">
<path d="M61.5407 88.4113H28.0341C13.1902 88.4113 1.11426 76.2555 1.11426 61.3146V27.5867C1.11426 12.6448 13.1902 0.489014 28.0341 0.489014H61.5407C76.3836 0.489014 88.4596 12.6448 88.4596 27.5867V61.3146C88.4596 76.2555 76.3836 88.4113 61.5407 88.4113ZM28.0341 7.32741C16.9364 7.32741 7.90778 16.4156 7.90778 27.5867V61.3146C7.90778 72.4846 16.9364 81.5729 28.0341 81.5729H61.5407C72.6375 81.5729 81.6661 72.4846 81.6661 61.3146V27.5867C81.6661 16.4156 72.6375 7.32741 61.5407 7.32741H28.0341Z" fill="white" fill-opacity="0.7"/>
<path d="M45.0342 69.3322C31.5404 69.3322 20.563 58.2813 20.563 44.6993C20.563 31.1173 31.5413 20.0664 45.0342 20.0664C58.5272 20.0664 69.5055 31.1173 69.5055 44.6993C69.5055 58.2813 58.5281 69.3322 45.0342 69.3322ZM45.0342 26.9048C35.2865 26.9048 27.3565 34.8872 27.3565 44.6993C27.3565 54.5114 35.2865 62.4938 45.0342 62.4938C54.782 62.4938 62.712 54.5114 62.712 44.6993C62.7129 34.8872 54.783 26.9048 45.0342 26.9048Z" fill="white" fill-opacity="0.7"/>
<path d="M69.59 24.7497C72.2147 24.7497 74.3425 22.6078 74.3425 19.9657C74.3425 17.3236 72.2147 15.1818 69.59 15.1818C66.9652 15.1818 64.8374 17.3236 64.8374 19.9657C64.8374 22.6078 66.9652 24.7497 69.59 24.7497Z" fill="white" fill-opacity="0.7"/>
</svg>
