<svg width="89" height="89" viewBox="0 0 89 89" fill="none" xmlns="http://www.w3.org/2000/svg">
<path d="M29.601 15.1427C13.5207 15.1427 0.48584 28.2636 0.48584 44.4501C0.48584 60.6366 13.5207 73.7575 29.601 73.7575C45.6812 73.7575 58.7161 60.6366 58.7161 44.4501C58.7161 28.2636 45.6812 15.1427 29.601 15.1427ZM29.601 53.2424C24.7766 53.2424 20.8664 49.3064 20.8664 44.4501C20.8664 39.5939 24.7766 35.6579 29.601 35.6579C34.4253 35.6579 38.3355 39.5939 38.3355 44.4501C38.3423 49.2995 34.4418 53.2355 29.6243 53.2424C29.6165 53.2424 29.6087 53.2424 29.601 53.2424Z" fill="white" fill-opacity="0.7"/>
<path d="M62.3265 37.1233C69.7236 39.2666 78.4562 37.1233 78.4562 37.1233C75.9223 48.2601 67.8865 55.2353 56.2987 56.0842C51.7062 66.8146 41.2083 73.7644 29.6011 73.7575L38.3356 45.8119C47.3147 17.0887 51.9168 15.1427 73.2107 15.1427H87.8313C85.3856 25.9864 76.9558 34.2697 62.3265 37.1233Z" fill="white" fill-opacity="0.7"/>
</svg>
