<svg width="89" height="89" viewBox="0 0 89 89" fill="none" xmlns="http://www.w3.org/2000/svg">
<path d="M35.8783 35.1089V31.6799C34.6962 31.5109 33.5035 31.424 32.3098 31.4181C17.7066 31.4181 5.82568 43.3794 5.82568 58.0791C5.82568 67.096 10.3026 75.0783 17.1321 79.9053C12.559 74.9826 10.0163 68.4939 10.0202 61.7542C10.0202 47.2636 21.5634 35.4469 35.8783 35.1089Z" fill="white" fill-opacity="0.7"/>
<path d="M36.5032 73.9285C43.0192 73.9285 48.3337 68.7108 48.5763 62.2085L48.5986 4.16319H59.1334C58.9083 2.95084 58.7947 1.7209 58.7938 0.488037H44.4051L44.3808 58.5353C44.1411 65.0357 38.8237 70.2514 32.3097 70.2514C30.3541 70.2524 28.4277 69.7727 26.6982 68.8535C28.9644 72.0362 32.6135 73.9246 36.5032 73.9285ZM78.8114 23.8666V20.6408C74.94 20.6447 71.1512 19.5105 67.9107 17.3789C70.7523 20.6721 74.5771 22.9483 78.8133 23.8666" fill="white" fill-opacity="0.7"/>
<path d="M67.9107 17.376C64.7353 13.7184 62.9854 9.02433 62.9874 4.16614H59.1325C60.1409 9.59192 63.3135 14.3661 67.9107 17.376ZM32.3097 45.9019C25.6327 45.9097 20.2221 51.356 20.2144 58.0771C20.2182 62.6022 22.7144 66.7521 26.6964 68.8545C25.2086 66.7893 24.4079 64.305 24.4079 61.7542C24.4147 55.0331 29.8253 49.5848 36.5033 49.577C37.7494 49.577 38.9441 49.7841 40.0718 50.1407V35.3541C38.8898 35.1851 37.697 35.0982 36.5033 35.0923C36.2937 35.0923 36.0869 35.104 35.8793 35.1079V46.4655C34.7244 46.0963 33.5209 45.9058 32.3097 45.9019Z" fill="white"/>
<path d="M78.8112 23.8666V35.1236C71.349 35.1236 64.4381 32.7213 58.7927 28.6437V58.0781C58.7927 72.7777 46.9137 84.7371 32.3105 84.7371C26.667 84.7371 21.4341 82.9445 17.1328 79.9043C22.1319 85.3311 29.1515 88.4142 36.5031 88.4123C51.1063 88.4123 62.9872 76.4529 62.9872 61.7552V32.3208C68.8189 36.542 75.8231 38.8095 83.0058 38.8007V24.313C81.5655 24.313 80.1651 24.1557 78.8103 23.8636" fill="white" fill-opacity="0.7"/>
<path d="M58.7917 58.0771V28.6427C64.6235 32.8649 71.6276 35.1314 78.8103 35.1226V23.8666C74.575 22.9473 70.7503 20.6701 67.9096 17.376C63.3123 14.3661 60.1397 9.59192 59.1314 4.16614H48.5975L48.5752 62.2114C48.3336 68.7118 43.0181 73.9295 36.5022 73.9295C32.6133 73.9256 28.9633 72.0363 26.6981 68.8554C22.7162 66.7541 20.219 62.6042 20.2142 58.0781C20.222 51.3569 25.6325 45.9107 32.3096 45.9028C33.5538 45.9028 34.7485 46.108 35.8781 46.4665V35.1089C21.5632 35.4469 10.02 47.2637 10.02 61.7542C10.02 68.7617 12.7248 75.1409 17.1319 79.9053C21.5748 83.0539 26.8767 84.741 32.3096 84.7361C46.9137 84.7361 58.7917 72.7768 58.7917 58.0771Z" fill="white"/>
</svg>
