<svg width="128" height="128" viewBox="0 0 128 128" fill="none" xmlns="http://www.w3.org/2000/svg">
<path opacity="0.4" d="M69.3333 17.3334H37.3333C19.0933 17.3334 12 24.4267 12 42.6667V85.3334C12 97.6 18.6667 110.667 37.3333 110.667H69.3333C87.5733 110.667 94.6667 103.573 94.6667 85.3334V42.6667C94.6667 24.4267 87.5733 17.3334 69.3333 17.3334Z" fill="white"/>
<path d="M61.3333 60.6933C66.8709 60.6933 71.36 56.2043 71.36 50.6667C71.36 45.1291 66.8709 40.64 61.3333 40.64C55.7957 40.64 51.3066 45.1291 51.3066 50.6667C51.3066 56.2043 55.7957 60.6933 61.3333 60.6933Z" fill="white"/>
<path d="M115.467 32.9067C113.28 31.7867 108.693 30.5067 102.453 34.88L94.5601 40.4267C94.6134 41.1733 94.6667 41.8667 94.6667 42.6667V85.3334C94.6667 86.1334 94.5601 86.8267 94.5601 87.5733L102.453 93.12C105.76 95.4667 108.64 96.2134 110.933 96.2134C112.907 96.2134 114.453 95.68 115.467 95.1467C117.653 94.0267 121.333 90.9867 121.333 83.36V44.6933C121.333 37.0667 117.653 34.0267 115.467 32.9067Z" fill="white"/>
</svg>
