<svg width="32" height="32" viewBox="0 0 32 32" fill="none" xmlns="http://www.w3.org/2000/svg">
<g clip-path="url(#clip0_37_2791)">
<path d="M8.91846 8.25806L20.4746 23.706H23.0914L11.5353 8.25806H8.91846Z" fill="white" fill-opacity="0.7"/>
<path d="M15.982 0.175781C7.25241 0.175781 0.175781 7.25241 0.175781 15.982C0.175781 24.7116 7.25241 31.7883 15.982 31.7883C24.7116 31.7883 31.7883 24.7116 31.7883 15.982C31.7883 7.25241 24.7116 0.175781 15.982 0.175781ZM19.857 24.9403L14.596 17.9058L8.08453 24.9403H6.41082L13.8482 16.9058L6.45754 7.02375H12.1538L16.9989 13.5022L22.9954 7.02375H24.6691L17.7467 14.5026L25.5532 24.9403H19.857Z" fill="white" fill-opacity="0.7"/>
</g>
<defs>
<clipPath id="clip0_37_2791">
<rect width="32" height="32" fill="white"/>
</clipPath>
</defs>
</svg>
